HIERARCHY
ROOT simHips
{
  OFFSET -226.02 92.1849 -12.4204
  CHANNELS 6 Xposition Yposition Zposition Zrotation Xrotation Yrotation
  JOINT simSpine
  {
    OFFSET -0.000355721 21.3001 -0.016921
    CHANNELS 3 Zrotation Xrotation Yrotation
    JOINT simLeftArm
    {
      OFFSET 13.5181 21.3012 0
      CHANNELS 3 Zrotation Xrotation Yrotation
      JOINT simLeftForeArm
      {
        OFFSET 24.5783 0 0
        CHANNELS 3 Zrotation Xrotation Yrotation
        JOINT simLeftHand
        {
          OFFSET 24.5783 0 0
          CHANNELS 3 Zrotation Xrotation Yrotation
          End Site
          {
            OFFSET 7.32568 1.52588e-05 0.0169305
          }
        }
      }
    }
    JOINT simHead
    {
      OFFSET 0 27.4458 -0.00489235
      CHANNELS 3 Zrotation Xrotation Yrotation
      End Site
      {
        OFFSET 0 0 0
      }
    }
    JOINT simRightArm
    {
      OFFSET -13.5174 21.3012 0
      CHANNELS 3 Zrotation Xrotation Yrotation
      JOINT simRightForeArm
      {
        OFFSET -24.5783 0 0
        CHANNELS 3 Zrotation Xrotation Yrotation
        JOINT simRightHand
        {
          OFFSET -24.5783 0 0
          CHANNELS 3 Zrotation Xrotation Yrotation
          End Site
          {
            OFFSET -7.32568 1.52588e-05 0.0169305
          }
        }
      }
    }
  }
  JOINT simRightUpLeg
  {
    OFFSET -8.44614 -9.41038 0.835684
    CHANNELS 3 Zrotation Xrotation Yrotation
    JOINT simRightLeg
    {
      OFFSET 0 -40.9639 0
      CHANNELS 3 Zrotation Xrotation Yrotation
      JOINT simRightFoot
      {
        OFFSET 0 -40.9639 0
        CHANNELS 3 Zrotation Xrotation Yrotation
        End Site
        {
          OFFSET 0.50614 -9.67405 14.6709
        }
      }
    }
  }
  JOINT simLeftUpLeg
  {
    OFFSET 8.44614 -9.41038 0.835684
    CHANNELS 3 Zrotation Xrotation Yrotation
    JOINT simLeftLeg
    {
      OFFSET 0 -40.9639 0
      CHANNELS 3 Zrotation Xrotation Yrotation
      JOINT simLeftFoot
      {
        OFFSET 0 -40.9639 0
        CHANNELS 3 Zrotation Xrotation Yrotation
        End Site
        {
          OFFSET -0.50614 -9.67405 14.6709
        }
      }
    }
  }
}
MOTION
Frames:	21
Frame Time:	0.0333333
-206.115 99.7607 0.110968 0 0 -0 0 0 -0 -6.83019e-06 -1.70755e-06 -1.53679e-05 6.83019e-06 1.70755e-06 2.50273e-05 2.13443e-07 -3.65662e-14 -9.81566e-06 0 0 -0 6.83019e-06 -8.53773e-07 5.12264e-06 0.000747741 -1.68006e-06 -0.000147513 -6.01186e-13 6.83019e-06 9.65935e-06 0.0823116 2.86312 -0.00242927 0.00424934 1.04118 -0.00153769 -0.0823758 -3.9043 -0.0029628 -1.02079 4.52218 0.0403688 0.0062881 0.00918434 0.00401059 1.02072 -4.53802 0.0404808 
-206.079 99.7608 0.156893 0.00640505 -0.003776 -0.102627 0.0311391 -0.0232495 -0.0364907 -0.121711 0.075961 0.185948 -0.0209948 0.101993 -0.0149867 -0.196613 0.0724492 -0.0124539 -0.0819203 -0.343191 0.0532196 -0.0972557 -0.0646248 -0.0677642 0.000747741 -1.68006e-06 -0.000147513 -0.132443 -0.0189472 0.00704941 0.0442299 2.91088 0.136862 0.00424988 1.06143 -0.0015377 -0.0593412 -3.98318 -0.0217777 -1.05824 4.52217 0.113 0.00628148 0.10374 0.00401059 1.04456 -4.62346 0.0770573 
-206.056 99.7607 0.187458 0.0130405 0.0167085 -0.163855 0.0356954 -0.064266 -0.0137457 -0.151825 0.123707 0.337788 -0.0686829 0.333668 -0.049158 -0.344265 -0.148121 -0.0501569 -0.0953012 -0.619167 -0.0509321 -0.182612 -0.0490034 -0.183187 0.000747741 -3.99621e-05 -7.79919e-05 -0.206833 -0.219315 0.0821292 0.017382 2.90975 0.168389 0.0042477 0.980147 -0.00153766 -0.0441036 -3.93164 -0.0168917 -1.09244 4.52344 0.0927462 0.00627939 0.133628 0.0040106 1.10306 -4.6695 0.159892 
-206.021 99.7636 0.220021 -0.0115623 0.0762273 -0.258553 0.087001 -0.0648641 -0.0874632 -0.210075 0.208034 0.66327 -0.0617878 0.300805 -0.0442412 -0.299993 -0.0317401 0.0155158 -0.115626 -0.928075 0.0155229 -0.24414 -0.36984 -0.282493 0.000890932 -0.222216 0.0369201 -0.0857424 0.0458546 0.0693525 0.00871729 2.71548 0.208431 0.00425548 1.27003 -0.00153782 -0.0092248 -4.04579 0.0575813 -1.09445 4.5506 0.211989 0.00628845 0.00415758 0.00401059 1.09038 -4.63372 0.131353 
-205.987 99.7578 0.26697 -0.0174279 0.0905829 -0.362226 0.103797 -0.0736657 -0.0937161 -0.222975 0.191406 0.968343 -0.00289367 0.0137817 -0.00207208 -0.448581 0.394278 0.00544232 -0.0884861 -1.16981 0.0805046 -0.354034 -0.567299 -0.40439 0.000999582 -0.294363 0.0490195 -0.0519296 0.0368877 0.0222552 0.00260142 2.87042 0.315583 -0.00354842 0.966075 0.00424005 -0.00059217 -3.94103 0.0322083 -1.12397 4.55428 0.34137 0.00736487 0.0362804 0.00401059 1.15762 -4.67923 0.10289 
-205.96 99.787 0.325376 -0.0354131 0.0838153 -0.457608 0.135244 -0.0949087 -0.0863346 -0.25212 0.174826 1.30991 0.119992 -0.581184 3.53905e-06 -0.602488 1.02501 -0.137913 -0.110442 -1.33168 0.132746 -0.461521 -0.826867 -0.558478 0.000747741 -2.94164e-05 1.89756e-05 -0.106468 -0.0187209 0.0649913 -0.080519 1.99559 0.397063 0.0337238 2.86688 -0.0164271 0.104133 -4.73945 0.225672 -1.14496 4.62339 0.315729 0.0217882 0.0051062 0.00401059 1.17748 -4.71121 0.267371 
-205.944 99.7843 0.372265 -0.0366757 0.0954476 -0.474847 0.125143 -0.115779 -0.114706 -0.186021 0.133398 1.52387 0.105161 -0.509314 0.000998045 -0.575219 1.14806 -0.0725873 -0.0924383 -1.48361 0.19659 -0.528046 -0.95417 -0.809042 0.000781441 -0.108211 0.0178438 -0.167873 0.120961 0.129483 -0.0754342 2.19695 0.485828 0.0269556 2.48253 -0.0129357 0.0976323 -4.59967 0.127228 -1.15477 4.61278 0.328995 0.0241296 0.0719614 0.0044591 1.20393 -4.77648 0.243163 
-205.925 99.7868 0.407694 -0.0305654 0.0835044 -0.478041 0.107228 -0.110372 -0.132383 -0.0991875 0.00626583 1.67076 0.088127 -0.42677 0.00190785 -0.649719 1.07909 -0.0799939 -0.0926363 -1.57512 0.28772 -0.631578 -1.23992 -1.0151 0.000747741 1.30384e-05 -0.000113067 -0.120125 0.0228544 0.051317 -0.10047 2.14718 0.509978 0.0303774 2.65054 -0.0142469 0.116096 -4.68353 0.118063 -1.17156 4.70272 0.309289 0.0251665 -0.00744923 0.00488997 1.24254 -4.76977 0.255477 
-205.911 99.752 0.451279 -0.0562587 0.0622371 -0.465894 0.121436 -0.10376 -0.165303 -0.0936183 -0.00975837 1.86671 0.152719 -0.739412 0.00273591 -0.764819 1.48906 -0.0808288 -0.0788993 -1.71781 0.388778 -0.697382 -1.39292 -1.3116 0.000979436 -0.282196 0.0470424 0.0117897 0.362989 -0.0746606 0.00530023 3.01553 0.438762 -0.0132546 0.951199 0.0137716 0.0854852 -4.05867 -0.0359896 -1.15593 4.73542 0.298511 0.0256088 0.00338638 0.00530728 1.25991 -4.79173 0.274679 
-205.901 99.7614 0.47941 -0.0471495 0.0744353 -0.438392 0.0805141 -0.0931069 -0.195255 -0.0708803 0.0177711 1.97984 0.179454 -0.868136 0.00348482 -0.851493 1.61284 -0.0447179 -0.0566794 -1.89572 0.386179 -0.762613 -1.59403 -1.50532 0.00074774 0.000136987 0.00022962 -0.0391705 0.191662 0.0135825 -0.0296657 3.0052 0.532609 -0.00333469 1.00719 0.00546965 0.059789 -4.04194 -0.0974015 -1.17674 4.74811 0.294703 0.0259228 0.00118589 0.00571509 1.28795 -4.81105 0.273722 
-205.902 99.758 0.499614 -0.0416543 0.0426714 -0.440097 0.029994 -0.0708933 -0.116997 -0.0213166 -0.0475471 1.99238 0.170985 -0.827583 0.00415721 -0.873832 1.71478 -0.0819887 0.0241471 -2.13844 0.378612 -0.777041 -1.64054 -1.81522 0.00110095 -0.346593 0.0583899 0.00954816 0.477191 -0.114824 -0.0232188 3.08962 0.554769 -0.0015129 0.949358 0.00322404 0.0920413 -4.09223 -0.150125 -1.18133 4.78219 0.301185 0.0265646 0.00715556 0.00611747 1.29524 -4.81783 0.227706 
-205.9 99.7614 0.502749 -0.055376 0.0447646 -0.450668 -0.00754704 -0.0126195 -0.133474 0.00130069 -0.0729246 2.08658 0.189497 -0.915771 0.0047561 -0.961447 1.81281 -0.107949 0.0969862 -2.48482 0.399937 -0.820405 -1.63855 -1.86373 0.00100471 -0.294228 0.0500401 0.0256126 0.362628 -0.0201405 -0.0308896 3.07258 0.548205 -0.00321434 1.0062 0.00317426 0.0701063 -4.05905 -0.087504 -1.17168 4.75445 0.323794 0.0276384 0.0924792 0.00651851 1.25731 -4.88355 0.231584 
-205.898 99.7586 0.496934 -0.0705704 0.0859177 -0.482438 -0.0475549 0.0510544 -0.241822 0.0233645 -0.101851 2.27935 0.197388 -0.953007 0.00528409 -1.03343 1.95904 -0.142295 0.20341 -2.84291 0.520499 -0.872542 -1.85107 -1.83254 0.00408038 0.000145502 0.00134222 0.0379635 0.131646 0.110276 -0.00866977 3.04331 0.615219 -0.00635366 0.959595 0.00470944 0.0631009 -4.05239 -0.144784 -1.15982 4.74897 0.33346 0.0291872 0.00757807 0.00692225 1.25131 -4.8365 0.254018 
-205.897 99.7642 0.489696 -0.0793072 0.113481 -0.512785 -0.0965881 0.10373 -0.25876 0.0723894 -0.10463 2.35426 0.201026 -0.969622 0.00574394 -1.14726 2.01786 -0.131861 0.245248 -3.13942 0.462302 -0.859413 -2.0588 -1.84778 0.0061136 0.000196956 0.00142057 0.0605769 0.197877 0.00700289 -0.00836429 3.00707 0.622187 -0.00886495 0.936617 0.00721905 0.0638018 -4.00008 -0.103272 -1.14954 4.71024 0.341645 0.0316133 0.0388944 0.00733277 1.24708 -4.85677 0.266443 
-205.896 99.7687 0.472965 -0.0762611 0.108429 -0.567296 -0.179691 0.194669 -0.183488 0.076782 0.0209121 2.43158 0.304497 -1.46814 0.00613955 -1.33653 2.6484 -0.223458 0.278131 -3.38096 0.281151 -0.866588 -2.13409 -1.8931 0.00775527 0.000288106 0.00162261 0.04754 0.213253 0.103815 -0.00244703 2.95444 0.68122 -0.00981761 1.01034 0.0100927 0.0632479 -4.01723 -0.119188 -1.16083 4.6843 0.500554 0.0459053 0.0909506 0.00775416 1.18729 -4.88867 0.190194 
-205.891 99.7751 0.458664 -0.112875 0.156555 -0.635264 -0.185652 0.341518 -0.258196 0.0633341 -0.06701 2.67662 0.416501 -2.00765 0.00647335 -1.55381 3.34522 -0.349561 0.26236 -3.79255 0.28118 -0.889598 -2.42813 -1.83463 0.00906695 0.000299937 0.00204672 -0.0455459 0.318726 0.0640764 0.0276058 2.91494 0.665745 -0.0101931 0.963914 0.0127192 0.0773105 -3.95243 -0.0434332 -1.13246 4.67624 0.395802 0.038516 -0.0109297 0.00819045 1.26379 -4.81508 0.368685 
-205.89 99.7903 0.43462 -0.120439 0.239903 -0.687076 -0.262489 0.52276 -0.230386 0.117024 -0.334462 2.82849 0.543308 -2.61786 0.00674845 -1.6698 4.03376 -0.413064 0.34943 -4.18083 0.138507 -0.892933 -2.82635 -1.99195 0.010473 -0.346399 0.0600109 0.0329075 0.486821 -0.066549 0.0357918 2.81247 0.718747 -0.0109083 0.961632 0.0155806 0.252473 -3.98955 -0.073833 -1.13717 4.54474 0.446754 0.0485653 0.026415 0.00864574 1.30526 -4.79819 0.384957 
-205.884 99.8103 0.418831 -0.13597 0.411819 -0.75384 -0.317538 0.752318 -0.214132 0.236457 -0.862642 2.94412 0.594193 -2.86205 0.00696506 -1.71976 4.50449 -0.456348 0.427397 -4.52468 0.0352499 -0.936977 -3.8712 -2.1012 0.0113114 -0.346441 0.0603287 0.0370999 0.684798 -0.0107371 0.0414539 2.57621 0.857888 -0.0128586 0.98263 0.0195015 0.203195 -3.87024 -0.102231 -1.13298 4.37686 0.591323 0.0686991 -0.0168611 0.00912409 1.27052 -4.76572 0.272192 
-205.864 99.8431 0.429736 -0.171031 0.671481 -0.781657 -0.334206 0.954062 -0.206332 0.418721 -1.64728 3.03896 0.674618 -3.2485 0.00712851 -2.04163 5.14075 -0.553288 0.448945 -4.62793 -0.152539 -1.00965 -5.39905 -2.32571 0.0119044 -0.293984 0.0519778 -0.0506827 0.991995 -0.10603 0.0579295 2.27995 0.799232 -0.0169178 0.97649 0.0249471 0.468267 -3.85213 -0.0411526 -1.11948 4.0848 0.591493 0.0819949 0.00648651 0.00962958 1.38111 -4.7399 0.296963 
-205.844 99.8591 0.459259 -0.210559 0.971532 -0.813666 -0.329167 1.11665 -0.170604 0.477487 -2.33745 3.16705 0.85229 -4.10003 0.00724474 -2.24284 6.17075 -0.657701 0.410037 -4.84522 -0.420507 -1.07855 -6.83448 -2.53215 0.012245 0.000425695 0.00321739 -0.0125504 1.01736 -0.0942871 0.0915067 1.97181 0.688057 -0.026078 0.99463 0.0298858 0.389362 -3.75727 0.11736 -1.09436 3.77771 0.657823 0.0975287 -0.00462699 0.0101663 1.38996 -4.72176 0.243026 
-205.82 99.871 0.530414 -0.239192 1.27668 -0.864088 -0.320991 1.1576 -0.119743 0.491741 -2.79879 3.39511 1.00273 -4.8189 0.00731243 -2.45766 7.15774 -0.865201 0.337826 -5.1044 -0.634147 -1.15268 -7.65589 -2.81866 0.0129653 -0.229105 0.041858 0.257291 1.44204 -0.0821168 0.0972005 1.63788 0.774771 -0.0317264 1.08357 0.0377136 0.49742 -3.81224 0.0968318 -1.091 3.48882 0.728247 0.114725 0.0118296 0.0107382 1.40504 -4.75521 0.224873 
